<?xml version="1.0" encoding="utf-8"?>
<!-- Generator: Adobe Illustrator 18.1.0, SVG Export Plug-In . SVG Version: 6.00 Build 0)  -->
<svg version="1.1" id="Layer_1" xmlns="http://www.w3.org/2000/svg" xmlns:xlink="http://www.w3.org/1999/xlink" x="0px" y="0px"
	 viewBox="0 0 1500 1500" enable-background="new 0 0 1500 1500" xml:space="preserve">
<g>
	<path fill="#AB5153" d="M519.6,595c10.4-12.8,20.8-71.7,20.8-71.7s75.5-28.2,127.5,15.4c52,43.5,96.3,30.7,96.3,30.7
		s-96.3,286.8-333.1,484c0,0,244.6-81.9,416.4-361.1c93.2-151.5,113.3-518.7,36.4-596.6c0,0,10.8,67.6-5.8,140.4
		c-0.6,1.8-1.3,3.6-2,5.5C821.4,397.9,532,454.4,532,454.4c-39.5,11.1-70,22.4-87.9,35.6c-41.6,30.7-98.9,12.8-98.9,12.8L444.1,613
		C444.1,613,509.2,607.8,519.6,595z"/>
	<path d="M835,1073H425v25h160v42h329v-43.1l138.6-1.1c0,0,174-474.6-56.6-771.4C995.9,324.4,1079.5,761,835,1073z"/>
	<path d="M973,1201.9V1157H519.6l-2.6,45.5c0,0-122.1,30.9-148.3,125.4c1.6-5,28.4-77.9,184.3-119.9h237.2c0,0-2.6,58.4-145.7,104.5
		C501.3,1358.6,340,1376,340,1376h778.1C1123.3,1258,973,1201.9,973,1201.9z"/>
	<path d="M582,356.9c31.2-15.4,33.8-15.4,44.2-46.1c10.4-30.7,236.8-97.3,236.8-97.3v-17.9c-8-46.1-67.6-99.9-67.6-99.9l-5.2,117.8
		c-229,58.9-190,97.3-190,97.3L360.8,472.1C360.8,472.1,550.8,372.2,582,356.9z"/>
</g>
</svg>
